<?xml version="1.0" encoding="UTF-8"?>
<!DOCTYPE svg PUBLIC "-//W3C//DTD SVG 1.1//EN" "http://www.w3.org/Graphics/SVG/1.1/DTD/svg11.dtd">
<!-- Creator: CorelDRAW 2018 (64 Bit Versão de avaliação) -->
<svg xmlns="http://www.w3.org/2000/svg" xml:space="preserve" width="91.44mm" height="91.44mm" version="1.1" style="shape-rendering:geometricPrecision; text-rendering:geometricPrecision; image-rendering:optimizeQuality; fill-rule:evenodd; clip-rule:evenodd"
viewBox="0 0 9144 9144"
 xmlns:xlink="http://www.w3.org/1999/xlink">
 <defs>
  <style type="text/css">
   <![CDATA[
    .fil0 {fill:#FFFFFD}
    .fil1 {fill:white}
   ]]>
  </style>
 </defs>
 <g id="Camada_x0020_1">
  <metadata id="CorelCorpID_0Corel-Layer"/>
  <g id="_2541474025504">
   <path class="fil0" d="M3646.56 2076.43c52.18,24.04 76.62,49.09 133.64,74.26 -22.88,96.54 -53.94,157.53 -77.05,257.91 -19.54,85.05 -29.26,167.85 -46.28,247.34 -55.08,333.77 -27.93,931.62 26.51,1262.78l50.13 402.62c-394.45,-2.42 -743.86,-294.92 -773.71,-676.84 44.01,7.17 105.33,24.83 138.84,28.59 30.4,3.43 24.11,4.11 53.96,0.73 53.66,-6.06 19.45,2.98 51.67,-17.35 -29.93,-61.44 -138.94,-62.8 -260.56,-89.54 -3.05,-111.29 -16.69,-169.62 54.67,-215.2 77.91,-72.3 192,-144.83 243.99,-210.38 57.73,-72.81 60.56,-30.28 9.45,-76.97 -28.64,-30.43 -156.11,139.37 -286.87,209.44 -13.23,-254.47 -165.76,-424.62 -399.75,-468.96l30.15 -102.25 8.72 -171.01c-0.48,-8.31 -3.06,-10.88 -5.31,-16.03 -88.53,36.79 -32.77,71.16 -108.25,281.56l-149.45 14.19c-21.56,-92.62 -59.87,-268.81 -148.58,-304.19 -32.33,43.81 -38.41,-27.95 -6.8,83.54 2.1,7.4 27.96,64.34 33.34,76.64 28.79,65.83 40.7,100.23 59.92,166.84 -241.39,224.17 -320.88,185.91 -260.17,796.36 -112.1,-39.67 -247.02,-158.96 -309.07,-157.8 -9.12,66.16 11.47,68.99 66.92,107.1 235.18,161.59 237.93,56.97 283.51,245.5l-206.64 130.58 17.37 61.54 208.54 -118c57.65,134.04 89.34,224.47 162.9,348.63 67.4,113.76 160.45,201.82 207.3,285.58l251.39 213.11c-40.31,33.3 -69.5,58.41 -124.9,85.22 -10.66,5.16 -71.54,33.92 -72.45,34.65 -44.57,34.8 -19.8,-7.52 -36.62,51.29 32.2,17.14 -47.3,31.49 63.26,10.15l239.62 -133.23 81.99 38.2 -8.99 106.62 -0.5 177.22c-2.05,109.37 -26.84,105.48 66.26,114.22l3.69 -348.18c159.11,55.4 241.69,113.86 425.83,150.88 206.14,41.42 324.6,5.43 492.93,21.85l67.02 818.5c-65.33,-37.45 -138.54,-130.12 -222.53,-136.94 -29.84,132.09 7.25,26.61 151.75,180.93 103.94,55.99 89.95,96.97 96.26,246.64 -74.57,51.29 -247.05,162.35 -255.08,256.97 89.73,-13.26 208.03,-121.31 247.17,-167.83 50.48,170.71 45.61,650.23 56.17,856.95l15.68 422.62c94.69,102.25 696.49,401.47 872.67,507.45 82.27,-38.21 63.89,-349.44 72.65,-447.83l121.54 -1350.9c415.66,33.99 659.67,25.65 979.02,-156.26 148.25,-84.47 222.22,-129.68 341.03,-235.11l288.08 -294.46c23.99,83.03 81.04,236.64 156.89,226.06 1.44,-4.8 1.75,-12 1.65,-14.93l-3.99 -43.33c-54.93,-184.02 -153.14,-90.23 -58.31,-363.49 190.25,42.86 342.3,195.96 398.41,182.43 1.74,-3.99 2.19,-10.76 2.04,-12.91 -0.15,-2.07 1.14,-10.07 0.68,-12.57 -15.45,-83.76 -280.75,-191.47 -349.34,-215.05 21.16,-104.6 119.9,-284.7 168.26,-516.64l45.68 -170.33 275.2 117.25c110.56,35.33 50.83,21.64 91.97,-7.38 -49.6,-83.13 -274.19,-157.57 -368.89,-184.19l3.82 -162.52c72.02,-43.28 113.88,-75.81 183.98,-129.9 140.96,-108.69 161.14,-81.84 110,-136.19 -30.83,-25.58 30.46,-45.3 -61.56,9.47l-216.24 169.27c-78,-117.22 -25.25,-155.56 -156.79,-282.55 -129.42,-124.92 -185.4,-89.17 -283.56,-159.97 23.03,-103.16 58.59,-153.19 48.76,-263.56l-48.99 -1.12 -90.83 281.72c-109.27,2.85 -144.22,-66.87 -195.93,-141.51 -68.56,-98.89 -54.57,-190.79 -166.34,-150.99 87.37,120.99 113.33,213.31 206.97,318.21 -63.71,57.62 -121.95,76.51 -185,150.86 -49.67,58.58 -64.3,145.68 -114.37,208.1 77.5,711.87 -207.22,1323.56 -940.86,1266.39l73.34 -959.92c150.27,55.17 176.61,137.22 256.66,82.87 -46.69,-89.14 -167.02,-106.26 -243.03,-171.13l9.14 -237.22c63.99,-33.56 149.27,-59.07 212.88,-101.22 27.45,-18.18 54.75,-36.26 83.92,-68.73 69.39,-77.27 20.63,-90 20.63,-90 -55.96,-3.74 -119.3,124.29 -302.22,172.17l19.59 -1026.64c156.24,-13.91 233.56,-26.29 398.28,-7.42 8.77,-76.19 22.86,-37.96 -24.09,-72.3 -147.88,-18.81 -236.66,-2.35 -381.21,9.75 -1.19,-142.38 43.66,-130.16 118.16,-202.25 46.99,-45.46 99.47,-103.79 147.67,-148.36l57.3 -66.16c103.31,-221.06 -67.09,-33.59 -90.5,-12.25 -74.67,95.89 -150.36,168.08 -221.32,246.47 -3.13,-4.47 -6.11,-11.24 -7.52,-14.57 -46.09,-108.79 -84.57,-743.46 -297.3,-895.66 53.64,-101.72 135.1,-178.26 196.42,-278l-71.85 -36.29c-27.37,67.7 -30.12,63.74 -77.52,115l-104.77 123.41c-63.06,-59.12 -100.08,-52.86 -108.84,-166.16 -5.31,-68.56 1.44,-166.59 11.36,-232.91l-11.46 -64.06c-31.95,6.01 -60.41,-24.93 -67.66,144.09 -2.75,64.14 -0.07,128.26 0.21,192.4 -322.07,-100.33 -517.48,-24.83 -727.6,122.85 -32.68,-44.37 -42.86,-84.32 -64.55,-138.64 -29.62,-74.26 -22.98,-86.74 -78.41,-101.94 -51.06,61.26 30.23,135 64.17,247.4 27.93,92.42 -36.99,132.47 -79.85,214.8 -103.53,-40.28 -196.92,-161.42 -245.53,-155.33 -49.34,77.88 16.59,78.86 66.21,135.38z"/>
   <path class="fil1" d="M6629.97 1476.96c211.18,-167.98 285.37,-198.16 615.52,-285.28 -271.66,-27.4 -470.5,135.13 -636.91,216.89 -152.68,-92.34 -266.87,-143.66 -498.11,-114.72 70.83,37.75 206.14,49.65 291.47,75.25 92.75,27.83 171.01,70.41 228.03,107.86z"/>
   <path class="fil1" d="M7057.57 2524.58c211.18,-167.98 285.37,-198.15 615.52,-285.28 -271.66,-27.39 -470.5,135.13 -636.91,216.9 -152.68,-92.35 -266.87,-143.66 -498.11,-114.72 70.83,37.75 206.14,49.64 291.47,75.25 92.75,27.83 171,70.4 228.03,107.85z"/>
   <path class="fil1" d="M1990.41 1391.43c211.18,-167.98 285.37,-198.16 615.53,-285.28 -271.67,-27.4 -470.51,135.13 -636.92,216.89 -152.68,-92.34 -266.87,-143.66 -498.11,-114.72 70.84,37.75 206.14,49.65 291.47,75.25 92.75,27.83 171.01,70.41 228.03,107.86z"/>
  </g>
 </g>
</svg>
